<?xml version="1.0" encoding="UTF-8" standalone="no"?>
<!-- Created with Inkscape (http://www.inkscape.org/) -->

<svg
   width="240mm"
   height="120mm"
   viewBox="0 0 240 120"
   version="1.1"
   id="svg8"
   inkscape:version="1.1.2 (08b2f3d93c, 2022-04-05)"
   sodipodi:docname="drawin.svg"
   xmlns:inkscape="http://www.inkscape.org/namespaces/inkscape"
   xmlns:sodipodi="http://sodipodi.sourceforge.net/DTD/sodipodi-0.dtd"
   xmlns:xlink="http://www.w3.org/1999/xlink"
   xmlns="http://www.w3.org/2000/svg"
   xmlns:svg="http://www.w3.org/2000/svg"
   xmlns:rdf="http://www.w3.org/1999/02/22-rdf-syntax-ns#"
   xmlns:cc="http://creativecommons.org/ns#"
   xmlns:dc="http://purl.org/dc/elements/1.1/">
  <defs
     id="defs2" />
  <sodipodi:namedview
     id="base"
     pagecolor="#ffffff"
     bordercolor="#666666"
     borderopacity="1.0"
     inkscape:pageopacity="0.0"
     inkscape:pageshadow="2"
     inkscape:zoom="256"
     inkscape:cx="401.59375"
     inkscape:cy="60.398438"
     inkscape:document-units="mm"
     inkscape:current-layer="layer1"
     showgrid="false"
     showborder="true"
     width="200mm"
     showguides="true"
     inkscape:guide-bbox="true"
     inkscape:window-width="959"
     inkscape:window-height="1043"
     inkscape:window-x="26"
     inkscape:window-y="23"
     inkscape:window-maximized="0"
     inkscape:pagecheckerboard="0">
    <inkscape:grid
       type="xygrid"
       id="grid815"
       units="mm"
       spacingx="10"
       spacingy="10"
       empspacing="4"
       dotted="false" />
  </sodipodi:namedview>
  <metadata
     id="metadata5">
    <rdf:RDF>
      <cc:Work
         rdf:about="">
        <dc:format>image/svg+xml</dc:format>
        <dc:type
           rdf:resource="http://purl.org/dc/dcmitype/StillImage" />
        <dc:title />
      </cc:Work>
    </rdf:RDF>
  </metadata>
  <g
     inkscape:label="Layer 1"
     inkscape:groupmode="layer"
     id="layer1"
     transform="translate(0,-177)">
    <path
       sodipodi:type="spiral"
       style="fill:none;fill-rule:evenodd;stroke:#000000"
       id="path14281"
       sodipodi:cx="250.46382"
       sodipodi:cy="69.366829"
       sodipodi:expansion="1"
       sodipodi:revolution="3"
       sodipodi:radius="12.281333"
       sodipodi:argument="-18.006678"
       sodipodi:t0="0"
       d="m 250.46382,69.366829 c 0.40968,0.459707 -0.41755,0.779043 -0.76406,0.680915 -0.93902,-0.265923 -1.02182,-1.493053 -0.59777,-2.209043 0.75853,-1.280737 2.53992,-1.333381 3.65402,-0.514616 1.63499,1.20157 1.65513,3.60133 0.43147,5.098999 -1.63095,1.996158 -4.66795,1.98127 -6.54398,0.348319 -2.36079,-2.054904 -2.3097,-5.737062 -0.26517,-7.988957 2.4762,-2.727348 6.80758,-2.63945 9.43394,-0.18202 3.09507,2.895996 2.97003,7.878975 0.0989,10.878914 -3.31487,3.463548 -8.95096,3.301176 -12.32389,0.01572 -3.83255,-3.733142 -3.63271,-10.023348 0.0674,-13.768871 4.15099,-4.20191 11.09604,-3.964516 15.21385,0.150577 4.57155,4.568533 4.29654,12.168958 -0.23372,16.658828"
       transform="matrix(0.26458333,0,0,0.26458333,0,177)" />
    <path
       sodipodi:type="spiral"
       style="fill:none;fill-rule:evenodd;stroke:#000000"
       id="path14283"
       sodipodi:cx="204.53354"
       sodipodi:cy="69.398254"
       sodipodi:expansion="1"
       sodipodi:revolution="3"
       sodipodi:radius="16.996099"
       sodipodi:argument="-17.700739"
       sodipodi:t0="0"
       d="m 204.53354,69.398254 c 0.34901,0.777407 -0.87574,0.854011 -1.2921,0.580087 -1.12832,-0.742317 -0.7261,-2.396193 0.13193,-3.164287 1.53481,-1.37394 3.90753,-0.700904 5.03647,0.84394 1.65676,2.267121 0.68308,5.442323 -1.55595,6.908661 -2.98429,1.954399 -6.98582,0.668888 -8.78085,-2.267967 -2.25887,-3.695733 -0.65667,-8.533542 2.97998,-10.653035 4.40447,-2.56699 10.08368,-0.645618 12.52522,3.691994 2.87727,5.111727 0.6353,11.635325 -4.40401,14.397409 -5.81808,3.188935 -13.18797,0.625467 -16.26959,-5.116021 -3.50154,-6.523844 -0.61598,-14.741326 5.82803,-18.141783 7.22921,-3.814799 16.29519,-0.606733 20.01397,6.540049 4.12855,7.934282 0.59768,17.849442 -7.25206,21.886156"
       transform="matrix(0.26458333,0,0,0.26458333,0,177)" />
    <path
       sodipodi:type="spiral"
       style="fill:none;fill-rule:evenodd;stroke:#000000"
       id="path14285"
       sodipodi:cx="234.97827"
       sodipodi:cy="188.82407"
       sodipodi:expansion="1"
       sodipodi:revolution="3.0031719"
       sodipodi:radius="17.407188"
       sodipodi:argument="-16.493361"
       sodipodi:t0="0"
       d="m 234.97827,188.82407 c -0.61649,0.61648 -1.13517,-0.52687 -1.02464,-1.02465 0.29951,-1.34896 2.02737,-1.56582 3.07393,-1.02464 1.87207,0.96803 2.09138,3.48181 1.02464,5.12322 -1.56547,2.40885 -4.95598,2.63251 -7.17251,1.02464 -2.9543,-2.14303 -3.18028,-6.43715 -1.02464,-9.2218 2.71265,-3.50421 7.92167,-3.73148 11.2711,-1.02464 4.05661,3.27835 4.28467,9.40806 1.02463,13.32039 -3.84184,4.61054 -10.89562,4.83911 -15.36968,1.02463 -5.16547,-4.40397 -5.39438,-12.38397 -1.02463,-17.41897 4.9652,-5.72108 13.87287,-5.95024 19.46826,-1.02462 6.27718,5.52579 6.50652,15.36216 1.02463,21.51754 -6.08594,6.83364 -16.85177,7.06311 -23.56684,1.02463 -0.0861,-0.0774 -0.17135,-0.15565 -0.25585,-0.23474"
       transform="matrix(0.26458333,0,0,0.26458333,0,177)" />
    <path
       sodipodi:type="spiral"
       style="fill:none;fill-rule:evenodd;stroke:#000000"
       id="path14287"
       sodipodi:cx="193.15704"
       sodipodi:cy="262.19388"
       sodipodi:expansion="1"
       sodipodi:revolution="3.00317"
       sodipodi:radius="39.079521"
       sodipodi:argument="-17.962585"
       sodipodi:t0="0"
       d="m 193.15704,262.19388 c 1.23656,1.51723 -1.43513,2.41541 -2.52174,2.05524 -2.94467,-0.97602 -3.03568,-4.88447 -1.58875,-7.09873 2.58822,-3.96081 8.25253,-3.8784 11.67573,-1.12225 5.02369,4.04476 4.75141,11.66821 0.65575,16.25272 -5.45888,6.11045 -15.10103,5.63766 -20.82972,0.18925 -7.20896,-6.85628 -6.53081,-18.5421 0.27726,-25.40671 8.24548,-8.31397 21.98781,-7.42798 29.9837,0.74376 9.42288,9.63011 8.32766,25.43643 -1.21026,34.56069 -11.01192,10.53432 -28.88699,9.22903 -39.13769,-1.67676 -11.64749,-12.39186 -10.13157,-32.3389 2.14327,-43.71468 13.77052,-12.7619 35.7918,-11.03497 48.29167,2.60977 13.87721,15.14825 11.93901,39.24545 -3.07627,52.86866 -0.19232,0.17449 -0.38639,0.34706 -0.58216,0.51768"
       transform="matrix(0.26458333,0,0,0.26458333,0,177)" />
    <path
       sodipodi:type="spiral"
       style="fill:none;fill-rule:evenodd;stroke:#000000"
       id="path14289"
       sodipodi:cx="307.15387"
       sodipodi:cy="285.77969"
       sodipodi:expansion="1"
       sodipodi:revolution="3.00317"
       sodipodi:radius="35.072323"
       sodipodi:argument="-18.869474"
       sodipodi:t0="0"
       d="m 307.15387,285.77969 c 1.75627,-0.035 0.91364,2.35015 0.0582,2.91903 -2.31833,1.54163 -5.13127,-0.55547 -5.89621,-2.80273 -1.3683,-4.01981 1.8224,-7.97795 5.66361,-8.87338 5.63713,-1.31409 10.87505,3.09423 11.85057,8.52448 1.30021,7.23767 -4.36622,13.79159 -11.38537,14.82775 -8.83289,1.30391 -16.71776,-5.63786 -17.80493,-14.24624 -1.3167,-10.42591 6.90925,-19.64945 17.10713,-20.78211 12.01785,-1.3348 22.58458,8.18045 23.75928,19.968 1.35625,13.6092 -9.45154,25.52201 -22.82888,26.73647 -15.20018,1.37994 -28.46105,-10.72255 -29.71364,-25.68976 -1.40523,-16.79095 11.9935,-31.40127 28.55064,-32.69083 18.38155,-1.43165 34.34236,13.26443 35.668,31.41152 0.017,0.23244 0.0316,0.46505 0.044,0.69778"
       transform="matrix(0.26458333,0,0,0.26458333,0,177)" />
    <path
       sodipodi:type="spiral"
       style="fill:none;fill-rule:evenodd;stroke:#000000"
       id="path14291"
       sodipodi:cx="377.05103"
       sodipodi:cy="291.20084"
       sodipodi:expansion="1"
       sodipodi:revolution="3.00317"
       sodipodi:radius="46.023235"
       sodipodi:argument="-18.813023"
       sodipodi:t0="0"
       d="m 377.05103,291.20084 c 2.30355,0.0842 1.023,3.14668 -0.13994,3.82866 -3.15149,1.84811 -6.68159,-1.10767 -7.51739,-4.10854 -1.49506,-5.36785 2.97829,-10.31736 8.07713,-11.20612 7.48277,-1.30428 14.01883,4.85909 14.89485,12.04574 1.16761,9.57868 -6.74149,17.74574 -16.01433,18.58358 -11.66893,1.05433 -21.48532,-8.62419 -22.27231,-19.98294 -0.95316,-13.75697 10.50695,-25.23213 23.95154,-25.96104 15.84398,-0.85899 28.98346,12.38974 29.64976,27.92014 0.76928,17.93047 -14.27253,32.73783 -31.88874,33.3385 -20.01665,0.68252 -36.49429,-16.15535 -37.02722,-35.85734 -0.59787,-22.10266 18.03818,-40.25231 39.82594,-40.71596 24.18855,-0.51473 44.01148,19.92103 44.40468,43.79455 0.005,0.30579 0.007,0.61162 0.006,0.91745"
       transform="matrix(0.26458333,0,0,0.26458333,0,177)" />
    <path
       sodipodi:type="spiral"
       style="fill:none;fill-rule:evenodd;stroke:#000000"
       id="path14293"
       sodipodi:cx="456.61191"
       sodipodi:cy="299.94141"
       sodipodi:expansion="1"
       sodipodi:revolution="3.00317"
       sodipodi:radius="10.060257"
       sodipodi:argument="-18.24995"
       sodipodi:t0="0"
       d="m 456.61191,299.94141 c 0.41597,0.28434 -0.17806,0.70101 -0.4726,0.69138 -0.79818,-0.0261 -1.10581,-0.98436 -0.91016,-1.63658 0.34997,-1.16666 1.75436,-1.5596 2.80055,-1.12894 1.53534,0.632 2.02434,2.5339 1.34773,3.96453 -0.90182,1.9068 -3.31672,2.4936 -5.12851,1.56651 -2.27996,-1.16666 -2.96517,-4.10106 -1.78529,-6.29249 1.42899,-2.65412 4.88626,-3.43807 7.45647,-2.00407 3.0289,1.6899 3.91179,5.67199 2.22285,8.62044 -1.94995,3.40411 -6.45808,4.38608 -9.78443,2.44164 -3.77961,-2.2094 -4.86075,-7.24442 -2.66041,-10.94841 2.46844,-4.15531 8.03093,-5.33571 12.11238,-2.8792 4.53118,2.7272 5.81088,8.8176 3.09798,13.27637 -0.0348,0.0571 -0.0701,0.11387 -0.10595,0.17028"
       transform="matrix(0.26458333,0,0,0.26458333,0,177)" />
    <path
       sodipodi:type="spiral"
       style="fill:none;fill-rule:evenodd;stroke:#000000"
       id="path14295"
       sodipodi:cx="504.11746"
       sodipodi:cy="347.47055"
       sodipodi:expansion="1"
       sodipodi:revolution="3.00317"
       sodipodi:radius="73.461479"
       sodipodi:argument="-16.420696"
       sodipodi:t0="0"
       d="m 504.11746,347.47055 c -2.78371,2.40594 -4.61655,-2.56539 -3.99883,-4.62672 1.67396,-5.58609 9.01303,-5.96944 13.25227,-3.37095 7.58301,4.64808 7.73591,15.29586 2.74307,21.87783 -7.32719,9.65931 -21.66651,9.5619 -30.50339,2.11519 -11.77817,-9.92529 -11.41367,-28.06867 -1.4873,-39.12895 12.49132,-13.91823 34.48594,-13.27888 47.7545,-0.85942 16.07002,15.04163 15.15188,40.91172 0.23154,56.38006 -17.5831,18.2289 -47.34283,17.02977 -65.00562,-0.39634 -20.39239,-20.11914 -18.91092,-53.77749 1.02423,-73.63118 22.65159,-22.55903 60.21463,-20.79437 82.25673,1.65211 24.72792,25.18155 22.67946,66.65359 -2.27999,90.88229 -27.70973,26.89846 -73.09392,24.5658 -99.50785,-2.90787 -0.33833,-0.3519 -0.67313,-0.70718 -1.00436,-1.06577"
       transform="matrix(0.26458333,0,0,0.26458333,0,177)" />
    <path
       sodipodi:type="spiral"
       style="fill:none;fill-rule:evenodd;stroke:#000000"
       id="path14297"
       sodipodi:cx="289.1463"
       sodipodi:cy="382.89642"
       sodipodi:expansion="1"
       sodipodi:revolution="3.00317"
       sodipodi:radius="37.58992"
       sodipodi:argument="-21.745327"
       sodipodi:t0="0"
       d="m 289.1463,382.89642 c -1.82611,-0.45816 -0.28334,-2.6876 0.7615,-3.03511 2.83145,-0.94174 5.15021,2.01877 5.30873,4.55811 0.28357,4.54228 -4.13025,7.73753 -8.35472,7.58235 -6.19959,-0.22773 -10.37561,-6.261 -9.85597,-12.15134 0.69259,-7.8509 8.39736,-13.03375 15.94795,-12.12959 9.50165,1.13779 15.70195,10.5361 14.40321,19.74457 -1.57295,11.15269 -12.67611,18.37593 -23.54118,16.67683 -12.80412,-2.00233 -21.05352,-14.81691 -18.95045,-27.3378 2.42808,-14.45586 16.95824,-23.73351 31.13441,-21.22406 16.10787,2.85139 26.4152,19.09993 23.49768,34.93102 -3.27301,17.76009 -21.2419,29.09811 -38.72764,25.7713 -19.41247,-3.69339 -31.78194,-23.38409 -28.04491,-42.52425 0.0479,-0.24516 0.0982,-0.48984 0.15093,-0.73399"
       transform="matrix(0.26458333,0,0,0.26458333,0,177)" />
    <path
       sodipodi:type="spiral"
       style="fill:none;fill-rule:evenodd;stroke:#000000"
       id="path14299"
       sodipodi:cx="197.35645"
       sodipodi:cy="353.08023"
       sodipodi:expansion="1"
       sodipodi:revolution="3.00317"
       sodipodi:radius="69.383812"
       sodipodi:argument="-21.314863"
       sodipodi:t0="0"
       d="m 197.35645,353.08023 c -2.71026,-2.17508 1.59481,-4.72648 3.61512,-4.50463 5.47491,0.60121 7.08412,7.35324 5.39413,11.73488 -3.02299,7.83773 -12.88794,9.7978 -19.85463,6.28363 -10.2239,-5.15718 -12.58177,-18.49405 -7.17313,-27.97438 7.20885,-12.63579 24.12504,-15.39507 36.09413,-8.06264 15.06189,9.22713 18.22343,29.76777 8.95214,44.21389 -11.22877,17.4962 -35.41707,21.06048 -52.33364,9.84164 -19.9356,-13.22101 -23.90298,-41.07048 -10.73114,-60.45339 15.20741,-22.37835 46.72663,-26.74913 68.57315,-11.62065 24.8234,17.18994 29.59781,52.38471 12.51014,76.69291 -19.16978,27.27012 -58.04419,32.44835 -84.81266,13.39964 -29.71807,-21.14767 -35.30027,-63.70473 -14.28914,-92.93241 0.26912,-0.37436 0.54198,-0.74604 0.81853,-1.11496"
       transform="matrix(0.26458333,0,0,0.26458333,0,177)" />
    <path
       sodipodi:type="spiral"
       style="fill:none;fill-rule:evenodd;stroke:#000000"
       id="path14301"
       sodipodi:cx="107.51112"
       sodipodi:cy="263.67487"
       sodipodi:expansion="1"
       sodipodi:revolution="3.00317"
       sodipodi:radius="13.073553"
       sodipodi:argument="-20.835062"
       sodipodi:t0="0"
       d="m 107.51112,263.67487 c -0.26383,-0.59929 0.67767,-0.65131 0.99606,-0.43851 0.86283,0.57668 0.54454,1.84523 -0.11904,2.43063 -1.18699,1.04713 -3.00638,0.51673 -3.8652,-0.6766 -1.26035,-1.75126 -0.49446,-4.18557 1.23415,-5.29976 2.30397,-1.48505 5.37147,-0.47494 6.73433,1.7917 1.71502,2.85233 0.45691,6.56064 -2.34925,8.1689 -3.39863,1.94781 -7.75167,0.43975 -9.60347,-2.90681 -2.182272,-3.9438 -0.42315,-8.94386 3.46436,-11.03803 4.48829,-2.41781 10.13683,-0.40693 12.4726,4.02191 2.65406,5.03233 0.39096,11.33033 -4.57946,13.90717 -5.57606,2.89082 -12.524235,0.37517 -15.341737,-5.13702 -3.127962,-6.11958 -0.359535,-13.71843 5.694567,-16.77631 0.0776,-0.0392 0.15548,-0.0776 0.23379,-0.11517"
       transform="matrix(0.26458333,0,0,0.26458333,0,177)" />
    <path
       sodipodi:type="spiral"
       style="fill:none;fill-rule:evenodd;stroke:#000000"
       id="path14303"
       sodipodi:cx="77.541725"
       sodipodi:cy="173.23244"
       sodipodi:expansion="1"
       sodipodi:revolution="3.00317"
       sodipodi:radius="17.074587"
       sodipodi:argument="-20.367504"
       sodipodi:t0="0"
       d="m 77.541725,173.23244 c 0.04517,-0.854 1.173456,-0.36044 1.419396,0.0751 0.666483,1.18023 -0.451329,2.47183 -1.56956,2.76371 -2.000254,0.5221 -3.809201,-1.16724 -4.108023,-3.06404 -0.438535,-2.78362 1.887326,-5.17087 4.558516,-5.45234 3.560278,-0.37514 6.541979,2.60817 6.79665,6.053 0.320479,4.33497 -3.329183,7.91778 -7.547473,8.14096 -5.108914,0.27031 -9.296261,-4.05027 -9.485277,-9.04195 -0.222748,-5.88252 4.771394,-10.67642 10.53643,-10.82959 6.655962,-0.17684 12.057706,5.49254 12.173904,12.03091 0.132031,7.42931 -6.213708,13.43977 -13.525386,13.51822 -8.202598,0.088 -14.822414,-6.93489 -14.862531,-15.01987 -0.04454,-8.97585 7.656082,-16.20548 16.514342,-16.20684 0.113462,-2e-5 0.226924,0.001 0.340364,0.003"
       transform="matrix(0.26458333,0,0,0.26458333,0,177)" />
    <path
       sodipodi:type="spiral"
       style="fill:none;fill-rule:evenodd;stroke:#000000"
       id="path14305"
       sodipodi:cx="94.036873"
       sodipodi:cy="101.75216"
       sodipodi:expansion="1"
       sodipodi:revolution="3.00317"
       sodipodi:radius="7.1110754"
       sodipodi:argument="-18.727577"
       sodipodi:t0="0"
       d="m 94.036873,101.75216 c 0.353515,0.0433 0.115995,0.49791 -0.07203,0.58756 -0.509532,0.24296 -1.014004,-0.25862 -1.103104,-0.73162 -0.159377,-0.84608 0.594545,-1.54905 1.391216,-1.618638 1.169147,-0.102122 2.094081,0.932898 2.134179,2.050808 0.05344,1.49001 -1.271831,2.64301 -2.710404,2.64972 -1.810297,0.008 -3.193877,-1.61098 -3.165253,-3.37 0.03467,-2.130409 1.950227,-3.74586 4.029591,-3.680791 2.450458,0.07668 4.29854,2.289542 4.196328,4.689181 -0.118006,2.77049 -2.628897,4.85169 -5.348778,4.71187 -3.090501,-0.15887 -5.405155,-2.96828 -5.227404,-6.00837 0.19941,-3.41052 3.307694,-5.958864 6.667966,-5.742944 3.730538,0.239713 6.512748,3.647122 6.258478,7.327564 -0.003,0.0471 -0.007,0.0943 -0.0112,0.14131"
       transform="matrix(0.26458333,0,0,0.26458333,0,177)" />
    <path
       sodipodi:type="spiral"
       style="fill:none;fill-rule:evenodd;stroke:#000000"
       id="path14307"
       sodipodi:cx="101.07648"
       sodipodi:cy="102.75781"
       sodipodi:expansion="1"
       sodipodi:revolution="3.00317"
       sodipodi:radius="47.603161"
       sodipodi:argument="-18.833487"
       sodipodi:t0="0"
       d="m 101.07648,102.75781 c 2.38392,0.0383 1.1245,3.23238 -0.0637,3.96223 -3.219879,1.97786 -6.932958,-1.00403 -7.860785,-4.08958 -1.659665,-5.51932 2.861519,-10.732351 8.115495,-11.759341 7.71041,-1.507149 14.59988,4.728131 15.65789,12.141401 1.41017,9.88072 -6.59587,18.49377 -16.1673,19.55645 -12.044669,1.33727 -22.400765,-8.46365 -23.45501,-20.19321 -1.276832,-14.206077 10.331332,-26.315236 24.21912,-27.353565 16.36628,-1.223636 30.23438,12.198943 31.25212,28.245025 1.17501,18.52584 -14.06651,34.15666 -32.27094,35.15067 -20.685021,1.12946 -38.081124,-15.93404 -39.049224,-36.29684 -1.086062,-22.843976 17.801565,-42.007184 40.322744,-42.94778 25.00278,-1.044239 45.93445,19.669076 46.84634,44.34865 0.0117,0.31612 0.0202,0.63234 0.0256,0.94862"
       transform="matrix(0.26458333,0,0,0.26458333,0,177)" />
    <path
       sodipodi:type="spiral"
       style="fill:none;fill-rule:evenodd;stroke:#000000"
       id="path14309"
       sodipodi:cx="293.56177"
       sodipodi:cy="118.03517"
       sodipodi:expansion="1"
       sodipodi:revolution="3.00317"
       sodipodi:radius="150.81041"
       sodipodi:argument="-18.72208"
       sodipodi:t0="0"
       d="m 293.56177,118.03517 c 7.49212,0.96027 2.40192,10.573 -1.59604,12.4524 -10.83421,5.09308 -21.47434,-5.60302 -23.30877,-15.64446 -3.28136,-17.961789 12.7894,-32.782258 29.69291,-34.165147 24.80658,-2.029445 44.30147,20.028497 45.02151,43.741337 0.95969,31.60549 -27.28046,55.9033 -57.78978,55.87788 -38.39286,-0.032 -67.54634,-34.53711 -66.73425,-71.83821 0.98356,-45.176627 41.79613,-79.212977 85.88665,-77.590617 51.95915,1.911894 90.89438,49.056564 88.44699,99.935087 -2.82561,58.74126 -56.31796,102.58563 -113.98352,99.30336 -65.52328,-3.72953 -114.28379,-63.58003 -110.15973,-128.03196 4.62657,-72.305326 70.84261,-125.986969 142.08039,-121.016098 79.08745,5.518609 137.69392,78.105577 131.87247,156.128828 -0.0746,0.99937 -0.15912,1.99799 -0.25362,2.99567"
       transform="matrix(0.26458333,0,0,0.26458333,0,177)" />
    <path
       sodipodi:type="spiral"
       style="fill:none;fill-rule:evenodd;stroke:#000000"
       id="path14311"
       sodipodi:cx="504.37283"
       sodipodi:cy="159.03145"
       sodipodi:expansion="1"
       sodipodi:revolution="3.00317"
       sodipodi:radius="31.942953"
       sodipodi:argument="-18.2565"
       sodipodi:t0="0"
       d="m 504.37283,159.03145 c 1.32668,0.89417 -0.55078,2.22948 -1.48616,2.20502 -2.53483,-0.0663 -3.53153,-3.10243 -2.92389,-5.17735 1.08694,-3.71155 5.53783,-4.98837 8.86855,-3.64275 4.88797,1.97475 6.48018,8.00329 4.36161,12.55974 -2.82372,6.07304 -10.47904,7.9864 -16.25094,5.08047 -7.26334,-3.65682 -9.49997,-12.95959 -5.79932,-19.94213 4.48198,-8.45678 15.44283,-11.01779 23.63332,-6.51818 9.65219,5.30263 12.53826,17.92775 7.23704,27.32451 -6.12047,10.84892 -20.41379,14.06051 -31.0157,7.9559 -12.04656,-6.93645 -15.58401,-22.90061 -8.67477,-34.70689 7.75113,-13.24486 25.38802,-17.10841 38.39809,-9.39363 14.44365,8.56487 18.63348,27.87584 10.11248,42.08928 -0.10914,0.18205 -0.2201,0.36302 -0.33286,0.54286"
       transform="matrix(0.26458333,0,0,0.26458333,0,177)" />
    <path
       sodipodi:type="spiral"
       style="fill:none;fill-rule:evenodd;stroke:#000000"
       id="path14313"
       sodipodi:cx="530.50031"
       sodipodi:cy="177.40829"
       sodipodi:expansion="1"
       sodipodi:revolution="3.00317"
       sodipodi:radius="38.126202"
       sodipodi:argument="-17.429077"
       sodipodi:t0="0"
       d="m 530.50031,177.40829 c 0.28596,1.88804 -2.40396,1.31697 -3.13805,0.47529 -1.98933,-2.28088 -0.1266,-5.60922 2.18747,-6.75137 4.13932,-2.04302 8.85659,0.83657 10.3647,4.85022 2.2132,5.8902 -1.7979,12.15899 -7.51297,13.97803 -7.6173,2.42449 -15.48236,-2.75663 -17.59136,-10.17573 -2.65395,-9.33617 3.71365,-18.81607 12.83848,-21.20468 11.05139,-2.89292 22.15569,4.6696 24.81801,15.50123 3.13745,12.7647 -5.62488,25.49899 -18.16398,28.43134 -14.47689,3.38551 -28.84476,-6.57971 -32.04467,-20.82674 -3.63594,-16.18838 7.53422,-32.19224 23.48949,-35.65799 17.8994,-3.88804 35.54099,8.48851 39.27132,26.15224 4.14137,19.61009 -9.44263,38.89068 -28.81499,42.88465 -0.24814,0.0512 -0.49678,0.0998 -0.74588,0.14602"
       transform="matrix(0.26458333,0,0,0.26458333,0,177)" />
    <path
       sodipodi:type="spiral"
       style="fill:none;fill-rule:evenodd;stroke:#000000"
       id="path14315"
       sodipodi:cx="531.14062"
       sodipodi:cy="239.66086"
       sodipodi:expansion="1"
       sodipodi:revolution="3.00317"
       sodipodi:radius="10.508032"
       sodipodi:argument="-17.007078"
       sodipodi:t0="0"
       d="m 531.14062,239.66086 c -0.14123,0.50699 -0.75309,0.0597 -0.84266,-0.23474 -0.2427,-0.79806 0.60138,-1.42464 1.31214,-1.45058 1.27139,-0.0464 2.13241,1.21013 2.05851,2.38954 -0.10846,1.73083 -1.82464,2.85421 -3.46694,2.66642 -2.18893,-0.25029 -3.58159,-2.44086 -3.27435,-4.54434 0.38664,-2.64701 3.05782,-4.31176 5.62174,-3.88226 3.10526,0.52017 5.04354,3.67516 4.49019,6.69913 -0.65211,3.56364 -4.29277,5.77632 -7.77654,5.09811 -4.02214,-0.78302 -6.50976,-4.91054 -5.70603,-8.85393 0.91326,-4.48074 5.52842,-7.24368 9.93134,-6.31395 4.9394,1.04301 7.97794,6.14638 6.92187,11.00873 -1.17244,5.39813 -6.76442,8.71245 -12.08614,7.52979 -0.0682,-0.0152 -0.13617,-0.031 -0.20402,-0.0475"
       transform="matrix(0.26458333,0,0,0.26458333,0,177)" />
    <path
       sodipodi:type="spiral"
       style="fill:none;fill-rule:evenodd;stroke:#000000"
       id="path14317"
       sodipodi:cx="513.98547"
       sodipodi:cy="299.39929"
       sodipodi:expansion="1"
       sodipodi:revolution="3.00317"
       sodipodi:radius="55.491463"
       sodipodi:argument="-16.658758"
       sodipodi:t0="0"
       d="m 513.98547,299.39929 c -1.61488,2.26203 -3.84589,-1.06083 -3.75963,-2.68404 0.23375,-4.39881 5.55291,-5.98756 9.12772,-4.83522 6.3945,2.06126 8.40347,9.85032 5.91081,15.57139 -3.65808,8.39591 -14.2016,10.87872 -22.01507,6.9864 -10.41412,-5.18784 -13.3785,-18.57142 -8.06199,-28.45875 6.6903,-12.44218 22.94994,-15.89084 34.90242,-9.13757 14.47607,8.17911 18.41042,27.33332 10.21317,41.3461 -9.66018,16.51357 -31.71973,20.93453 -47.78977,11.28875 -18.5535,-11.13643 -23.46168,-36.10817 -12.36435,-54.23345 12.6095,-20.59509 40.49803,-25.99094 60.67713,-13.43993 22.63789,14.08034 28.52174,44.88893 14.51552,67.1208 -15.54957,24.68159 -49.28061,31.0537 -73.56448,15.59111 -0.31104,-0.19805 -0.6201,-0.39922 -0.92713,-0.60344"
       transform="matrix(0.26458333,0,0,0.26458333,0,177)" />
    <path
       sodipodi:type="spiral"
       style="fill:none;fill-rule:evenodd;stroke:#000000"
       id="path14319"
       sodipodi:cx="418.03159"
       sodipodi:cy="376.26535"
       sodipodi:expansion="1"
       sodipodi:revolution="3.00317"
       sodipodi:radius="25.675451"
       sodipodi:argument="-16.0746"
       sodipodi:t0="0"
       d="m 418.03159,376.26535 c -1.2005,0.46099 -1.2137,-1.39081 -0.7662,-1.99531 1.21268,-1.63815 3.6711,-0.89404 4.75681,0.46292 1.94209,2.42728 0.72993,5.94623 -1.69202,7.51832 -3.55431,2.3071 -8.25731,0.57495 -10.27983,-2.92114 -2.69571,-4.65974 -0.42473,-10.58179 4.15025,-13.04134 5.75714,-3.09508 12.91283,-0.27712 15.80284,5.37937 3.50019,6.85077 0.13108,15.2476 -6.60847,18.56435 -7.94233,3.90867 -17.5847,-0.014 -21.32586,-7.83759 -4.31931,-9.03265 0.15841,-19.92335 9.0667,-24.08737 10.12217,-4.73141 22.26309,0.30238 26.84887,10.29582 5.14455,11.21113 -0.44601,24.60362 -11.52492,29.61037 -12.2997,5.55845 -26.94476,-0.58939 -32.37189,-12.75403 -0.0695,-0.15581 -0.13747,-0.31232 -0.20386,-0.46949"
       transform="matrix(0.26458333,0,0,0.26458333,0,177)" />
    <path
       sodipodi:type="spiral"
       style="fill:none;fill-rule:evenodd;stroke:#000000"
       id="path14321"
       sodipodi:cx="363.97354"
       sodipodi:cy="389.18964"
       sodipodi:expansion="1"
       sodipodi:revolution="3.00317"
       sodipodi:radius="45.387074"
       sodipodi:argument="-21.801109"
       sodipodi:t0="0"
       d="m 363.97354,389.18964 c -2.23231,-0.42941 -0.52251,-3.22097 0.71371,-3.71025 3.35006,-1.32592 6.34472,2.08703 6.70678,5.13765 0.64763,5.45685 -4.45835,9.60602 -9.5616,9.70333 -7.48924,0.1428 -12.92978,-6.84948 -12.69986,-13.98555 0.30644,-9.51126 9.24602,-16.27811 18.40949,-15.6964 11.5313,0.73203 19.63874,11.64475 18.69294,22.83344 -1.14549,13.55101 -14.04464,23.00641 -27.25739,21.68948 -15.57077,-1.55196 -26.37848,-16.44523 -24.68601,-31.68134 1.95402,-17.59069 18.84628,-29.7535 36.10528,-27.68255 19.61077,2.35314 33.13058,21.24768 30.67909,40.52923 -2.7502,21.63098 -23.64932,36.50915 -44.95318,33.67563 -23.65131,-3.14575 -39.88885,-26.05116 -36.67216,-49.37713 0.0412,-0.29877 0.0854,-0.59713 0.13254,-0.89502"
       transform="matrix(0.26458333,0,0,0.26458333,0,177)" />
    <path
       sodipodi:type="spiral"
       style="fill:none;fill-rule:evenodd;stroke:#000000"
       id="path14323"
       sodipodi:cx="248.52715"
       sodipodi:cy="340.72556"
       sodipodi:expansion="1"
       sodipodi:revolution="3.00317"
       sodipodi:radius="76.824013"
       sodipodi:argument="-21.362043"
       sodipodi:t0="0"
       d="m 248.52715,340.72556 c -3.11113,-2.26411 1.51705,-5.31078 3.76309,-5.17091 6.08665,0.37904 8.21903,7.76276 6.57871,12.6971 -2.93414,8.82639 -13.74243,11.50938 -21.6311,7.98651 -11.57695,-5.16995 -14.8812,-19.79741 -9.39431,-30.5651 7.31316,-14.35164 25.87837,-18.28676 39.4991,-10.80211 17.14029,9.41866 21.70959,31.97153 12.20992,48.4331 -11.50538,19.93717 -38.07152,25.14237 -57.36711,13.61772 -22.73917,-13.58141 -28.5814,-44.17576 -15.02552,-66.3011 15.6508,-25.54459 50.28284,-32.02461 75.2351,-16.43333 28.35235,17.7158 35.47073,56.39191 17.84113,84.1691 -19.77773,31.16181 -62.50244,38.91896 -93.1031,19.24894 -33.97253,-21.83746 -42.36878,-68.61408 -20.65674,-102.03711 0.2781,-0.4281 0.56048,-0.85342 0.84708,-1.27589"
       transform="matrix(0.26458333,0,0,0.26458333,0,177)" />
    <path
       sodipodi:type="spiral"
       style="fill:none;fill-rule:evenodd;stroke:#000000"
       id="path14325"
       sodipodi:cx="128.29602"
       sodipodi:cy="223.52319"
       sodipodi:expansion="1"
       sodipodi:revolution="3.00317"
       sodipodi:radius="19.423458"
       sodipodi:argument="-20.927526"
       sodipodi:t0="0"
       d="m 128.29602,223.52319 c -0.47251,-0.85037 0.91317,-1.05648 1.41338,-0.78535 1.35554,0.73476 1.05869,2.65507 0.15732,3.61211 -1.61234,1.71191 -4.37663,1.17684 -5.81083,-0.47071 -2.10475,-2.41784 -1.30566,-6.12413 1.09873,-8.00955 3.20468,-2.51298 7.88119,-1.43946 10.20828,1.72676 2.92842,3.98436 1.57591,9.64287 -2.35478,12.407 -4.76061,3.34774 -11.40719,1.71393 -14.60574,-2.98281 -3.76937,-5.53494 -1.85291,-13.17314 3.61085,-16.80446 6.30812,-4.1925 14.94018,-1.99256 19.00318,4.23887 4.61664,7.08054 2.13266,16.708 -4.8669,21.20191 -7.85244,5.04149 -18.47638,2.27309 -23.40063,-5.49492 -5.46686,-8.62397 -2.41377,-20.24518 6.12295,-25.59937 0.10934,-0.0686 0.21937,-0.13606 0.33006,-0.20245"
       transform="matrix(0.26458333,0,0,0.26458333,0,177)" />
    <path
       sodipodi:type="spiral"
       style="fill:none;fill-rule:evenodd;stroke:#000000"
       id="path14327"
       sodipodi:cx="115.91386"
       sodipodi:cy="155.14632"
       sodipodi:expansion="1"
       sodipodi:revolution="3.00317"
       sodipodi:radius="5.0282898"
       sodipodi:argument="-19.512976"
       sodipodi:t0="0"
       d="m 115.91386,155.14632 c 0.19842,-0.15509 0.30695,0.19095 0.25777,0.32979 -0.13329,0.37625 -0.63632,0.37769 -0.91737,0.18574 -0.50273,-0.34335 -0.47725,-1.07179 -0.11371,-1.50492 0.53351,-0.63564 1.51349,-0.5806 2.09249,-0.0417 0.77173,0.71828 0.68559,1.95742 -0.0303,2.68006 -0.90093,0.90937 -2.40243,0.79145 -3.26762,-0.10237 -1.04788,-1.08254 -0.89782,-2.84804 0.17439,-3.85519 1.26357,-1.18689 3.29404,-1.0045 4.44276,0.24643 1.32624,1.44424 1.1114,3.74029 -0.31845,5.03032 -1.62469,1.46581 -4.18672,1.21843 -5.61789,-0.39048 -1.60556,-1.80497 -1.32559,-4.63328 0.46251,-6.20546 1.98512,-1.74541 5.07993,-1.43281 6.79302,0.53454 0.0219,0.0252 0.0436,0.0506 0.0651,0.0763"
       transform="matrix(0.26458333,0,0,0.26458333,0,177)" />
    <path
       sodipodi:type="spiral"
       style="fill:none;fill-rule:evenodd;stroke:#000000"
       id="path14329"
       sodipodi:cx="119.93649"
       sodipodi:cy="152.12933"
       sodipodi:expansion="1"
       sodipodi:revolution="3.00317"
       sodipodi:radius="27.958397"
       sodipodi:argument="-19.3836"
       sodipodi:t0="0"
       d="m 119.93649,152.12933 c 1.20533,-0.71278 1.55549,1.27309 1.1847,2.00333 -1.00482,1.9789 -3.77942,1.62602 -5.19135,0.36606 -2.52562,-2.25378 -1.86261,-6.25199 0.45257,-8.37937 3.39763,-3.12202 8.76149,-2.11555 11.5674,1.27121 3.73983,4.51401 2.37601,11.28452 -2.08985,14.75542 -5.61982,4.36776 -13.81413,2.64048 -17.94344,-2.90848 -5.00114,-6.72054 -2.90729,-16.34746 3.72712,-21.13147 7.81842,-5.63778 18.8831,-3.17558 24.31948,4.54575 6.27652,8.91459 3.44485,21.4203 -5.36438,27.50751 -10.00962,6.91667 -23.95858,3.71481 -30.695531,-6.18302 -7.557839,-11.10387 -3.985263,-26.49765 7.001651,-33.88355 12.19756,-8.19974 29.03733,-4.25609 37.07157,7.82029 0.10291,0.15468 0.20427,0.31039 0.30407,0.4671"
       transform="matrix(0.26458333,0,0,0.26458333,0,177)" />
    <path
       sodipodi:type="spiral"
       style="fill:none;fill-rule:evenodd;stroke:#000000"
       id="path14331"
       sodipodi:cx="293.56177"
       sodipodi:cy="118.03517"
       sodipodi:expansion="1"
       sodipodi:revolution="3.00317"
       sodipodi:radius="31.01889"
       sodipodi:argument="-18.273077"
       sodipodi:t0="0"
       d="m 293.56177,118.03517 c 1.30251,0.84683 -0.49889,2.17356 -1.40748,2.16487 -2.46223,-0.0236 -3.47884,-2.95543 -2.92225,-4.97983 0.9956,-3.62118 5.29659,-4.93253 8.55217,-3.67964 4.77771,1.83868 6.42068,7.66639 4.43702,12.12453 -2.6439,5.942 -10.04594,7.92297 -15.69687,5.1944 -7.11112,-3.43363 -9.43249,-12.43004 -5.95179,-19.26922 4.2156,-8.28316 14.81669,-10.946168 22.84157,-6.70917 9.45704,4.99316 12.46246,17.20492 7.46655,26.41392 -5.76797,10.63215 -19.5942,13.98048 -29.98626,8.22393 -11.80812,-6.54095 -15.49973,-21.98423 -8.98132,-33.55861 7.31267,-12.984702 24.3748,-17.019859 37.13096,-9.7387 14.16175,8.08347 18.54065,26.76578 10.49608,40.70331 -0.10304,0.17852 -0.20786,0.35601 -0.31444,0.53243"
       transform="matrix(0.26458333,0,0,0.26458333,0,177)" />
    <path
       sodipodi:type="spiral"
       style="fill:none;fill-rule:evenodd;stroke:#000000"
       id="path14333"
       sodipodi:cx="481.18768"
       sodipodi:cy="177.48685"
       sodipodi:expansion="1"
       sodipodi:revolution="3.00317"
       sodipodi:radius="10.477725"
       sodipodi:argument="-18.084076"
       sodipodi:t0="0"
       d="m 481.18768,177.48685 c 0.3784,0.36361 -0.30345,0.68946 -0.60434,0.62891 -0.8154,-0.16407 -0.96662,-1.2013 -0.65349,-1.83761 0.56012,-1.13821 2.07028,-1.30033 3.07088,-0.67805 1.46841,0.91322 1.64366,2.95095 0.70262,4.30414 -1.25427,1.80359 -3.83576,1.99107 -5.53741,0.72719 -2.14135,-1.59047 -2.34058,-4.72253 -0.75175,-6.77067 1.92428,-2.48057 5.6104,-2.69131 8.00393,-0.77632 2.82069,2.25674 3.0428,6.49897 0.80089,9.23719 -2.58838,3.16138 -7.38801,3.39481 -10.47046,0.82546 -3.50248,-2.91947 -3.74717,-8.27736 -0.85002,-11.70372 3.25016,-3.84386 9.16695,-4.0998 12.93698,-0.87459 4.18545,3.58059 4.45262,10.05672 0.89916,14.17024 -0.0455,0.0527 -0.0916,0.10493 -0.13811,0.15669"
       transform="matrix(0.26458333,0,0,0.26458333,0,177)" />
    <path
       sodipodi:type="spiral"
       style="fill:none;fill-rule:evenodd;stroke:#000000"
       id="path14335"
       sodipodi:cx="474.49377"
       sodipodi:cy="214.07944"
       sodipodi:expansion="1"
       sodipodi:revolution="3.00317"
       sodipodi:radius="15.247452"
       sodipodi:argument="-15.930481"
       sodipodi:t0="0"
       d="m 474.49377,214.07944 c -0.74484,0.16853 -0.59466,-0.92089 -0.28011,-1.23799 0.85241,-0.8593 2.23375,-0.21232 2.75609,0.67776 0.93433,1.59215 -0.0782,3.55684 -1.63564,4.27418 -2.28562,1.05273 -4.90183,-0.36636 -5.79228,-2.5935 -1.18683,-2.96843 0.65291,-6.25511 3.55138,-7.31038 3.64744,-1.32795 7.61247,0.93846 8.82848,4.50925 1.47275,4.32471 -1.22343,8.97215 -5.46713,10.34658 -5.00105,1.61971 -10.33328,-1.50802 -11.86467,-6.42501 -1.76805,-5.67685 1.79235,-11.69537 7.38287,-13.38276 6.35231,-1.91732 13.05816,2.07651 14.90087,8.34075 2.06724,7.02752 -2.36055,14.42142 -9.29862,16.41896 -7.70257,2.21764 -15.78508,-2.6445 -17.93706,-10.2565 -0.0276,-0.0975 -0.0542,-0.19527 -0.0798,-0.2933"
       transform="matrix(0.26458333,0,0,0.26458333,0,177)" />
    <path
       sodipodi:type="spiral"
       style="fill:#000000;fill-rule:evenodd;stroke:#000000;fill-opacity:1"
       id="path14337"
       sodipodi:cx="365.647"
       sodipodi:cy="108.04145"
       sodipodi:expansion="1"
       sodipodi:revolution="3.00317"
       sodipodi:radius="4.955297"
       sodipodi:argument="-17.495762"
       sodipodi:t0="0"
       d="m 365.647,108.04145 c 0.0534,0.24237 -0.30034,0.19161 -0.40283,0.0888 -0.27773,-0.27856 -0.065,-0.72632 0.22521,-0.89447 0.5191,-0.30079 1.15578,0.0318 1.38612,0.53922 0.33802,0.74468 -0.12785,1.59237 -0.85324,1.87777 -0.96683,0.38038 -2.03166,-0.2234 -2.36941,-1.16726 -0.42503,-1.18775 0.31863,-2.47227 1.48127,-2.86106 1.40811,-0.47087 2.91364,0.41368 3.3527,1.79529 0.51742,1.62818 -0.50861,3.35548 -2.10931,3.84435 -1.84807,0.56442 -3.79763,-0.60346 -4.33599,-2.42333 -0.61172,-2.06785 0.69825,-4.24 2.73735,-4.82763 2.28755,-0.65923 4.68254,0.793 5.31928,3.05136 0.70689,2.50721 -0.88772,5.1252 -3.36538,5.81092 -0.0317,0.009 -0.0636,0.0172 -0.0955,0.0254"
       transform="matrix(0.26458333,0,0,0.26458333,0,177)" />
    <path
       sodipodi:type="spiral"
       style="fill:none;fill-rule:evenodd;stroke:#000000"
       id="path14442"
       sodipodi:cx="327.19238"
       sodipodi:cy="47.745182"
       sodipodi:expansion="1"
       sodipodi:revolution="3.00317"
       sodipodi:radius="5.427259"
       sodipodi:argument="-16.394257"
       sodipodi:t0="0"
       d="m 327.19238,47.745182 c -0.21028,0.17225 -0.33593,-0.198478 -0.28629,-0.349508 0.13454,-0.409281 0.6773,-0.423258 0.98531,-0.223072 0.55095,0.358085 0.54145,1.144756 0.15985,1.621104 -0.56,0.69906 -1.61881,0.663859 -2.2569,0.09664 -0.85047,-0.756018 -0.78811,-2.095252 -0.0334,-2.892701 0.94971,-1.003508 2.57283,-0.913333 3.5285,0.0298 1.15744,1.142258 1.03911,3.051053 -0.093,4.164297 -1.33417,1.31192 -3.52967,1.165237 -4.80009,-0.156234 -1.46675,-1.52569 -1.2916,-4.008572 0.21945,-5.435894 1.71695,-1.621815 4.48765,-1.418124 6.07169,0.28267 1.77706,1.908033 1.54477,4.966873 -0.34588,6.707491 -2.09899,1.932415 -5.4462,1.671501 -7.34329,-0.409106 -0.0243,-0.02665 -0.0483,-0.05354 -0.0721,-0.08067"
       transform="matrix(0.26458333,0,0,0.26458333,0,177)" />
    <path
       sodipodi:type="spiral"
       style="fill:none;fill-rule:evenodd;stroke:#000000"
       id="path14444"
       sodipodi:cx="413.03473"
       sodipodi:cy="-14.039927"
       sodipodi:expansion="1"
       sodipodi:revolution="3.00317"
       sodipodi:radius="6.6549611"
       sodipodi:argument="-16.828167"
       sodipodi:t0="0"
       d="m 413.03473,-14.039927 c -0.14516,0.300049 -0.47608,-0.04764 -0.4987,-0.241264 -0.0613,-0.524713 0.53535,-0.820073 0.98123,-0.756136 0.79757,0.114369 1.19255,0.994499 1.01357,1.721193 -0.26266,1.066452 -1.45882,1.573135 -2.46116,1.271008 -1.33596,-0.402689 -1.95699,-1.924834 -1.52844,-3.201121 0.53929,-1.606078 2.39162,-2.342513 3.94108,-1.78588 1.87661,0.674157 2.72899,2.858841 2.04332,4.68105 -0.80804,2.14741 -3.32633,3.1160541 -5.42101,2.300751 -2.41841,-0.9413 -3.50353,-3.793988 -2.55819,-6.160978 1.07415,-2.689525 4.26177,-3.891272 6.90094,-2.815623 2.96075,1.206716 4.27922,4.729655 3.07306,7.640907 -1.33907,3.2320402 -5.1976,4.6673261 -8.38087,3.3304938 -0.0408,-0.017123 -0.0814,-0.034653 -0.1218,-0.052587"
       transform="matrix(0.26458333,0,0,0.26458333,0,177)" />
    <use
       id="use21685"
       inkscape:spray-origin="#path14337"
       xlink:href="#path14337"
       x="0"
       y="0"
       width="100%"
       height="100%"
       transform="translate(9.303656,-12.971897)" />
    <use
       id="use21687"
       inkscape:spray-origin="#path14337"
       xlink:href="#path14337"
       x="0"
       y="0"
       width="100%"
       height="100%"
       transform="translate(9.3189022,-12.919383)" />
  </g>
</svg>
