<?xml version="1.0" encoding="UTF-8" standalone="no"?>
<!-- Created with Inkscape (http://www.inkscape.org/) -->

<svg
   width="240mm"
   height="120mm"
   viewBox="0 0 240 120"
   version="1.1"
   id="svg8"
   inkscape:version="1.1.2 (08b2f3d93c, 2022-04-05)"
   sodipodi:docname="drawing.svg"
   xmlns:inkscape="http://www.inkscape.org/namespaces/inkscape"
   xmlns:sodipodi="http://sodipodi.sourceforge.net/DTD/sodipodi-0.dtd"
   xmlns="http://www.w3.org/2000/svg"
   xmlns:svg="http://www.w3.org/2000/svg"
   xmlns:rdf="http://www.w3.org/1999/02/22-rdf-syntax-ns#"
   xmlns:cc="http://creativecommons.org/ns#"
   xmlns:dc="http://purl.org/dc/elements/1.1/">
  <defs
     id="defs2" />
  <sodipodi:namedview
     id="base"
     pagecolor="#ffffff"
     bordercolor="#666666"
     borderopacity="1.0"
     inkscape:pageopacity="0.0"
     inkscape:pageshadow="2"
     inkscape:zoom="0.99437388"
     inkscape:cx="652.67201"
     inkscape:cy="184.03541"
     inkscape:document-units="mm"
     inkscape:current-layer="layer1"
     showgrid="false"
     showborder="true"
     width="200mm"
     showguides="true"
     inkscape:guide-bbox="true"
     inkscape:window-width="959"
     inkscape:window-height="1043"
     inkscape:window-x="20"
     inkscape:window-y="20"
     inkscape:window-maximized="0"
     inkscape:pagecheckerboard="0">
    <inkscape:grid
       type="xygrid"
       id="grid815"
       units="mm"
       spacingx="10"
       spacingy="10"
       empspacing="4"
       dotted="false" />
  </sodipodi:namedview>
  <metadata
     id="metadata5">
    <rdf:RDF>
      <cc:Work
         rdf:about="">
        <dc:format>image/svg+xml</dc:format>
        <dc:type
           rdf:resource="http://purl.org/dc/dcmitype/StillImage" />
        <dc:title />
      </cc:Work>
    </rdf:RDF>
  </metadata>
  <g
     inkscape:label="Layer 1"
     inkscape:groupmode="layer"
     id="layer1"
     transform="translate(0,-177)">
    <path
       style="fill:none;stroke:#000000;stroke-width:0.264583px;stroke-linecap:butt;stroke-linejoin:miter;stroke-opacity:1"
       d="m 60.739072,204.61103 c -1.82503,8.29565 -4.321281,16.49145 -5.18129,24.98453 -0.488993,4.82906 -0.08835,9.56031 -0.08835,14.36522"
       id="path41" />
    <path
       style="fill:none;stroke:#000000;stroke-width:0.264583px;stroke-linecap:butt;stroke-linejoin:miter;stroke-opacity:1"
       d="m 74.861078,206.07032 c -0.303811,9.24023 0.262961,18.48402 0.262961,27.71184"
       id="path43" />
    <path
       style="fill:none;stroke:#000000;stroke-width:0.264583px;stroke-linecap:butt;stroke-linejoin:miter;stroke-opacity:1"
       d="m 52.69118,218.22062 c 9.037053,-0.85533 17.967817,-3.05784 27.073675,-3.05784"
       id="path45" />
    <path
       style="fill:none;stroke:#000000;stroke-width:0.264583px;stroke-linecap:butt;stroke-linejoin:miter;stroke-opacity:1"
       d="m 89.808348,219.83789 c 0.117382,3.47206 0.393904,6.89453 0.610113,10.35219 0.06512,1.04143 -0.129823,1.7608 0.606997,2.49762"
       id="path47" />
    <path
       style="fill:none;stroke:#000000;stroke-width:0.264583px;stroke-linecap:butt;stroke-linejoin:miter;stroke-opacity:1"
       d="m 89.725197,212.75247 -0.179811,-2.81671"
       id="path49" />
    <path
       style="fill:#000000;fill-opacity:1;fill-rule:nonzero;stroke:none;stroke-width:0.264583"
       id="path46"
       d="m 54.790681,206.76953 c -0.643837,8.77548 -1.232596,17.55449 -1.916457,26.32719 -0.39847,5.04496 -0.710636,10.09821 -1.236038,15.13249 -0.129585,1.24165 -0.401346,3.64569 -0.678735,5.00263 -0.08503,0.41596 -0.226299,0.81842 -0.339448,1.22763 -0.11294,0.19745 -0.174754,0.4348 -0.33882,0.59237 -0.08543,0.082 -0.448437,0.132 -0.348781,0.068 1.045106,-0.6714 2.184564,-1.19319 3.204347,-1.90246 0.07434,-0.0517 -0.138049,-0.11989 -0.190331,-0.19382 -0.169542,-0.23975 -0.244747,-0.50766 -0.345942,-0.77987 -1.411759,-5.14699 -2.019536,-10.46407 -2.58971,-15.75581 -0.524127,-6.89476 -0.759521,-13.8962 0.56429,-20.72432 0.855887,-4.41461 1.373719,-5.30498 2.911647,-9.46651 0.833162,-1.46467 1.579292,-2.98239 2.499484,-4.39401 3.441036,-5.2787 8.121589,-9.80744 13.332545,-13.3263 1.022535,-0.69049 2.111729,-1.27674 3.167591,-1.9151 0.219906,0.92544 -0.04636,0.0635 2.167845,-0.64121 0.897308,-0.28559 2.871433,-0.86939 3.69538,0.0267 0.254259,0.27653 0.336193,0.67189 0.504288,1.00784 0.07209,0.6839 0.208576,1.36406 0.216265,2.05171 0.0504,4.50776 -1.223039,9.12221 -3.147764,13.16757 -0.566917,1.19153 -1.271934,2.31231 -1.907899,3.46847 -2.002105,3.17259 -4.517052,5.90085 -7.510153,8.1567 -0.836703,0.63061 -1.733381,1.17768 -2.611665,1.74895 -0.14976,0.0974 0.593862,-0.38477 0.424942,-0.32661 -0.645449,0.22224 -1.249418,0.5504 -1.874126,0.8256 -1.461757,0.47511 -3.293345,1.24435 -4.816798,0.50477 -0.146444,-0.0711 -0.274793,-0.17461 -0.412189,-0.26192 -0.220369,-0.24198 -0.789943,-0.64094 -0.738293,-1.04478 0.03645,-0.28499 0.451384,-0.51236 0.604866,-0.63501 0.327806,-0.19895 1.242955,-0.87914 0.983417,-0.59686 -0.332724,0.36188 -1.697829,0.90331 -1.209926,0.84322 0.829675,-0.10219 1.526479,-0.6846 2.309021,-0.97859 1.654762,-0.62166 3.392752,-1.13183 5.124648,-1.48916 0.795846,-0.1642 1.604413,-0.25918 2.406621,-0.38877 0.762921,-0.0254 1.525791,-0.0999 2.288762,-0.0761 2.70251,0.0843 5.496314,0.93002 7.426518,2.9198 0.577578,0.5954 1.015492,1.31193 1.523241,1.9679 0.356571,1.0876 0.849151,2.1397 1.069716,3.26281 1.15598,5.88624 -0.236871,12.88513 -2.762425,18.24212 -0.743336,1.5767 -1.730153,3.02667 -2.595232,4.54 -2.686573,3.85459 -5.885476,7.28601 -9.760785,9.96421 -0.949058,0.65588 -1.921844,1.29784 -2.975528,1.76757 -0.187728,0.0837 0.465579,-0.52753 0.262318,-0.55803 -0.631775,-0.0948 -1.260475,0.2091 -1.890712,0.31365 -0.484392,-0.075 -0.995358,-0.0498 -1.453174,-0.22487 -0.797076,-0.30485 -1.393738,-1.01363 -1.593443,-1.83707 -0.433215,-1.78628 0.404101,-3.59331 1.03214,-5.19735 1.024689,-1.9485 2.415196,-3.5959 4.180459,-4.91293 0.546634,-0.40783 1.088914,-0.85129 1.721985,-1.10497 0.411046,-0.16471 -1.47655,0.7776 -1.036897,0.83045 0.769345,0.0925 1.480304,-0.45877 2.220455,-0.68816 4.546319,-1.06357 9.118028,-2.03501 13.551313,-3.52166 3.233292,-1.08425 3.6216,-1.3296 6.675151,-2.6592 3.553058,-1.92733 7.148954,-3.67485 10.01559,-6.60345 1.042686,-1.06523 2.102692,-2.43904 2.859585,-3.73534 0.313899,-0.53759 0.547198,-1.11836 0.820799,-1.67754 0.150593,-0.50762 0.369572,-0.99978 0.451776,-1.52285 0.334798,-2.1303 -0.636617,-4.17945 -1.699697,-5.94454 -0.429302,-0.56285 -0.802545,-1.24628 -1.400461,-1.66038 -0.07088,-0.0491 -0.154111,-0.16039 -0.22969,-0.11891 -1.201335,0.65937 -2.330503,1.44244 -3.495754,2.16366 0.05456,0.20129 0.09012,0.40871 0.163677,0.60386 0.307181,0.81496 0.750398,1.5405 1.191601,2.2912 1.120762,1.90699 2.371683,3.6904 3.677518,5.47373 1.548294,1.95062 3.273771,4.16696 5.870811,4.68669 1.44838,0.28985 1.9369,0.0397 3.34563,-0.2524 2.21723,-1.183 3.82134,-1.95684 5.92322,-3.87508 0.50826,-0.46386 0.72267,-1.17878 0.9793,-1.81723 0.55972,-1.39253 0.79227,-2.90556 0.8261,-4.39707 0.0177,-0.78104 -0.0793,-1.56046 -0.11894,-2.34069 -0.20709,-1.87948 -0.58336,-3.73777 -1.1287,-5.54809 -0.22528,-0.74789 -0.44466,-1.52971 -0.95855,-2.13109 -1.1765,0.7424 -2.56399,1.22564 -3.52948,2.2272 -0.27924,0.28967 0.13527,0.79464 0.24264,1.1824 0.28123,1.0156 0.63549,2.0099 0.92214,3.02399 1.03267,3.65337 1.98006,7.45607 2.80509,11.14931 0.52678,2.35808 0.99005,4.7299 1.48508,7.09485 0.90015,4.9386 1.68737,8.8816 2.32739,13.84935 0.58033,4.50446 0.93937,7.89806 0.58684,12.42778 -0.40017,5.1418 -0.8986,5.74965 -2.44834,10.48681 -2.26787,3.82266 -2.28997,4.57292 -5.6453,7.48687 -0.50695,0.44026 -1.13169,0.74867 -1.76598,0.96892 -3.27814,1.13829 -6.08901,1.76988 -9.591282,1.47203 -1.630209,-0.13864 -3.199484,-0.68595 -4.799224,-1.02893 -1.39918,-0.66991 -2.919783,-1.13006 -4.197538,-2.00973 -3.712649,-2.55598 -6.122543,-6.93042 -6.044737,-11.47327 0.06888,-4.02137 1.35486,-5.77163 3.00972,-9.32034 1.132457,-1.43001 2.146253,-2.96259 3.397367,-4.29003 2.513936,-2.66731 5.799724,-5.13979 8.921006,-7.03784 0.932807,-0.56724 1.952773,-0.97903 2.952758,-1.41713 4.9436,-2.1658 4.64427,-1.9406 9.64269,-3.59334 5.29346,-1.55491 10.68011,-2.76451 15.98299,-4.28457 2.39236,-0.68576 2.77959,-0.83712 4.98947,-1.5715 2.77682,-1.36461 3.24148,-1.50575 6.48482,-3.85157 0.53374,-0.38605 1.00015,-0.87306 1.39255,-1.40214 0.88929,-1.19908 1.62408,-3.04374 1.99294,-4.4527 0.24852,-0.94932 0.35437,-1.93037 0.53155,-2.89556 0.41106,-3.88503 0.29746,-7.88411 -1.33267,-11.50971 -0.92422,-2.05558 -1.55994,-2.63807 -2.92755,-4.34548 -0.5617,-0.49759 -1.06404,-1.07159 -1.68511,-1.49276 -1.1294,-0.76588 -2.44414,-1.24959 -3.83136,-1.14826 -2.30478,0.16834 -5.51083,2.36167 -6.83993,3.38342 -0.68059,0.5232 -1.04625,1.3613 -1.56938,2.04195 -0.39413,0.93292 -0.92492,1.81928 -1.18239,2.79876 -0.73648,2.80184 -0.60713,5.31461 -0.23806,8.1791 0.36627,2.84272 1.24617,6.52265 2.24722,9.21473 0.54209,1.45782 1.27296,2.83831 1.90944,4.25746 0.75239,1.26356 1.41024,2.58844 2.25718,3.79067 2.16747,3.07671 5.01165,5.81334 8.47515,7.372 2.44103,1.09852 3.21348,0.99334 5.77516,1.28288 0.93911,-0.12047 1.89484,-0.14819 2.81733,-0.36141 1.87086,-0.43243 3.55066,-1.23595 5.19681,-2.19698 1.64268,-0.95901 3.26884,-1.94879 4.85497,-2.99868 0.97459,-0.64509 2.04868,-1.66102 2.92899,-2.45376 0.66041,-0.69178 1.40739,-1.37939 1.79435,-2.27901 0.0655,-0.15236 0.0902,-0.31922 0.13527,-0.47883 0,0 -3.50067,1.6575 -3.50067,1.6575 v 0 c -0.31083,0.97427 -0.99417,1.724 -1.70644,2.44023 -0.38395,0.35471 -0.75376,0.72537 -1.15184,1.06414 -0.51013,0.4341 -1.14622,0.73507 -1.57104,1.25296 -0.15967,0.19464 0.93485,-0.35473 0.72284,-0.21895 -1.4983,0.95957 -3.40959,1.85213 -5.13761,2.29194 -0.90805,0.23111 -1.85231,0.28428 -2.77847,0.42642 -2.55627,-0.20249 -3.37769,-0.077 -5.83955,-1.08528 -3.50586,-1.43591 -6.40924,-4.07184 -8.62638,-7.10128 -0.86232,-1.17824 -1.53483,-2.48429 -2.30225,-3.72644 -0.63502,-1.40665 -1.36312,-2.77488 -1.90506,-4.21995 -1.94303,-5.18104 -3.23028,-12.00817 -1.50292,-17.41446 0.3125,-0.97805 0.89028,-1.8505 1.33542,-2.77575 0.56832,-0.66103 1.36176,-1.18173 1.70497,-1.98308 0.15002,-0.35028 -1.42475,0.51992 -1.04963,0.45292 0.66665,-0.11909 1.26553,-0.52665 1.93739,-0.6115 1.3568,-0.17133 2.63727,0.2229 3.78064,0.93063 0.62865,0.38913 1.14433,0.93648 1.71649,1.40472 1.43257,1.68984 1.98997,2.12317 2.94402,4.20257 1.63303,3.55929 1.74882,7.5189 1.29287,11.33879 -0.51948,2.35864 -0.5423,3.21211 -1.61789,5.33783 -0.34759,0.68695 -0.76264,1.34499 -1.24287,1.94675 -0.40119,0.50272 -1.29074,0.70829 -1.38382,1.3447 -0.0647,0.44238 1.60481,-0.75028 1.25598,-0.47063 -0.56846,0.45572 -1.29036,0.67695 -1.93555,1.01543 -2.30822,0.83826 -2.7534,1.02949 -5.24725,1.79474 -5.39543,1.65562 -10.90674,2.89167 -16.3096,4.52125 -3.56301,1.19008 -6.3984,2.01328 -9.8054,3.67104 -5.818588,2.83119 -11.521928,6.15725 -15.995921,10.92268 -1.278847,1.36215 -2.321872,2.92789 -3.482811,4.39183 -1.662768,3.57724 -3.012826,5.47348 -3.086941,9.53391 -0.08442,4.62509 2.433701,9.09444 6.217195,11.67424 1.305237,0.88998 2.857434,1.34831 4.286152,2.02246 1.611791,0.36122 3.191219,0.92522 4.835377,1.08367 1.635974,0.15766 3.300507,0.0822 4.928597,-0.14271 4.356622,-0.6019 7.410612,-2.17602 11.039622,-4.88749 2.78325,-2.07955 3.8006,-4.61299 5.45388,-7.53139 1.43289,-4.78232 1.86774,-5.27142 2.17707,-10.43468 0.29059,-4.85047 -0.096,-7.53956 -0.79865,-12.35759 -0.67059,-4.59842 -1.58324,-9.23535 -2.43428,-13.80074 -1.63675,-8.85612 -1.00967,-5.26174 -2.44698,-13.79499 -0.28023,-1.66371 -0.58618,-3.32339 -0.83507,-4.99207 -0.16141,-1.08218 -0.30434,-2.16818 -0.39554,-3.25851 -0.0318,-0.37967 0.40583,-1.18665 0.0274,-1.14264 -1.20249,0.13984 -2.19805,1.01525 -3.29708,1.52288 0.0902,0.0292 0.20513,0.0189 0.27044,0.0876 0.33854,0.35594 0.71966,1.29405 0.86041,1.66325 0.65807,1.7262 1.07373,3.53256 1.28309,5.36708 0.0275,0.76723 0.1146,1.53465 0.0824,2.3017 -0.0611,1.45539 -0.32997,2.9607 -0.94031,4.29602 -0.28392,0.62116 -1.345,1.11909 -1.07293,1.74553 0.22439,0.51667 1.4831,-1.04485 1.61507,-0.49724 0.13816,0.57335 -1.00964,0.60986 -1.51445,0.91479 -1.34173,0.3461 -1.8305,0.61686 -3.23637,0.40859 -2.58305,-0.38265 -4.34941,-2.52249 -5.901914,-4.41123 -1.329061,-1.83059 -2.484157,-3.47644 -3.471596,-5.52511 -0.264747,-0.54927 -0.744167,-1.63764 -0.876884,-2.33245 -0.02818,-0.14752 0.0041,-0.30034 0.0061,-0.4505 -1.1049,0.57777 -2.2171,1.1418 -3.314703,1.73333 -0.05002,0.027 0.111726,-0.0518 0.166495,-0.0367 0.09773,0.0271 0.180202,0.0948 0.261665,0.15518 0.476575,0.35329 0.84533,0.83291 1.21213,1.29104 1.11855,1.65161 2.028785,3.52681 1.70452,5.59109 -0.07724,0.4917 -0.270746,0.95794 -0.40612,1.43691 -0.251528,0.53191 -0.46279,1.08479 -0.754589,1.59571 -0.725291,1.26997 -1.716624,2.55945 -2.739191,3.5941 -0.633103,0.64059 -1.400601,1.14132 -2.016215,1.79874 -0.05758,0.0615 0.296862,0.0671 0.226131,0.1129 -0.919469,0.59503 -1.913731,1.06564 -2.870597,1.59846 -2.994231,1.34122 -3.578629,1.68468 -6.747144,2.75983 -4.300525,1.45926 -8.744837,2.36715 -13.191109,3.24817 -0.733126,0.2043 -1.504921,0.30154 -2.199378,0.6129 -2.70042,1.21072 -5.976226,2.87307 -8.109733,5.12198 -1.331442,1.40346 -1.552631,1.98019 -2.537418,3.628 -0.653661,1.69715 -1.534522,3.67101 -1.069708,5.55375 0.228669,0.92623 0.928455,1.74745 1.825213,2.09019 0.510712,0.19519 1.081778,0.15959 1.622668,0.23938 3.707164,-0.64827 2.139146,-0.17134 7.218312,-2.92051 5.041977,-2.72905 8.933413,-7.01638 12.189619,-11.65698 0.874167,-1.53238 1.871284,-3.00087 2.622505,-4.59712 2.587818,-5.49878 3.947152,-12.54252 3.076723,-18.60051 -0.171027,-1.19029 -0.587828,-2.33208 -0.881743,-3.49812 -0.491529,-0.69879 -0.90306,-1.46134 -1.474591,-2.09637 -1.922659,-2.13626 -4.820838,-2.99825 -7.60321,-3.09064 -0.782412,-0.026 -1.565066,0.0441 -2.3476,0.0661 -0.820711,0.13262 -1.647325,0.23279 -2.462131,0.39784 -4.770987,0.96643 -9.311145,2.86684 -13.312055,5.66183 -0.155458,0.19765 -0.355893,0.36706 -0.466373,0.59295 -0.328086,0.67082 0.463516,1.32613 0.876559,1.70221 0.425062,0.28427 0.563862,0.42522 1.084316,0.55979 1.587852,0.41057 3.249398,-0.25556 4.718521,-0.76896 0.667861,-0.29732 1.358783,-0.54748 2.003581,-0.89198 3.622617,-1.93547 7.194156,-3.96182 10.143604,-6.8625 2.361207,-2.32216 2.79764,-3.21123 4.718121,-5.9398 0.640826,-1.17081 1.349306,-2.30706 1.922478,-3.51244 1.96474,-4.13184 3.275193,-8.92135 3.513918,-13.5029 0.03984,-0.76463 -0.03328,-1.53098 -0.04992,-2.29646 -0.190963,-0.41211 -0.273367,-0.89488 -0.572886,-1.23634 -0.622096,-0.70919 -1.551803,-0.63129 -2.367685,-0.50552 -3.409061,0.5255 -6.435923,2.68491 -9.378458,4.22397 -1.005176,0.62819 -2.042903,1.20709 -3.01553,1.88459 -5.105127,3.55607 -9.664086,8.09652 -13.050102,13.32676 -0.929957,1.43647 -1.693629,2.974 -2.540442,4.461 -1.487514,4.17212 -1.988034,5.06 -2.805607,9.4765 -1.272463,6.87379 -0.976696,13.92063 -0.713822,20.86455 0.08774,1.51192 0.143732,3.026 0.263229,4.53574 0.09589,1.21146 0.250759,2.41755 0.382751,3.62561 0.298871,2.73538 0.596342,5.47473 0.996977,8.1971 0.0332,0.10048 0.463788,1.34592 0.646549,1.28522 1.289201,-0.42821 2.494552,-1.07995 3.709604,-1.68745 0.08998,-0.045 0.131111,-0.15726 0.167536,-0.25104 0.07409,-0.19073 0.106765,-0.39506 0.160147,-0.59259 0.219068,-1.97176 0.249428,-3.94326 0.304523,-5.92644 0.137252,-4.94061 0.246414,-9.88369 0.610915,-14.81467 0.595616,-7.66952 1.215096,-15.35488 2.569173,-22.93687 0.25492,-1.4274 0.574473,-2.74378 0.900887,-4.133 0,0 -3.505197,1.71806 -3.505197,1.71806 z" />
    <circle
       id="path48"
       style="fill:#000000;stroke:#000000;stroke-width:0.264583"
       cx="161.40683"
       cy="243.64377"
       r="0.035441641" />
    <circle
       id="path50"
       style="fill:#000000;stroke:#000000;stroke-width:0.264583"
       cx="161.40683"
       cy="243.64377"
       r="0.035441641" />
    <path
       style="fill:#000000;fill-opacity:1;fill-rule:nonzero;stroke:none;stroke-width:0.264583"
       id="path52"
       d="m 201.26475,194.36673 c 0.15121,1.70486 0.19256,1.85834 0.15866,4.07837 -0.14299,9.3614 -1.186,18.68503 -2.19913,27.98163 -0.65272,5.77688 -1.45613,11.53445 -2.2807,17.28864 0,0 2.47098,-1.22576 2.47098,-1.22576 v 0 c 0.39943,-5.61996 0.8231,-11.23846 1.38562,-16.84504 0.66519,-6.49161 0.94406,-9.56443 1.76002,-16.08259 0.70808,-5.65637 1.64623,-11.29139 2.16434,-16.96988 0,0 -3.45979,1.77463 -3.45979,1.77463 z" />
    <path
       style="fill:#000000;fill-opacity:1;fill-rule:nonzero;stroke:none;stroke-width:0.264583"
       id="path54"
       d="m 192.53787,258.66215 c 1.62816,-0.57667 3.10928,-1.6082 4.54305,-2.49842 0.19872,-0.12338 0.63852,-0.67462 0.73638,-0.87442 0.0936,-0.19109 0.12814,-0.40582 0.1922,-0.60873 -0.009,-0.24014 0.0361,-0.48878 -0.0279,-0.72043 -0.4457,-1.61365 -2.7566,-2.40064 -4.19006,-2.73556 -0.46447,-0.10852 -0.9426,-0.14685 -1.4139,-0.22028 -0.40986,0.009 -0.82424,-0.0351 -1.22959,0.0263 -0.33341,0.0504 -0.66982,0.14141 -0.96434,0.30562 -1.56735,0.87388 -4.33317,1.60447 -4.32394,3.85376 0.001,0.24233 0.0831,0.47749 0.12459,0.71624 0.18323,0.23775 0.32933,0.50944 0.5497,0.71326 1.03517,0.95745 2.83067,1.44463 4.20781,1.48725 0.36671,0.0113 0.73252,-0.0427 1.09878,-0.064 2.20854,-0.41766 3.6965,-1.52584 5.71299,-2.81129 0.30892,-0.19692 0.70605,-0.77404 0.84837,-1.10944 0.082,-0.19335 0.10817,-0.4059 0.16225,-0.60885 0.0616,-0.67282 -0.24896,-1.05871 -0.67016,-1.52686 0,0 -3.29592,2.00678 -3.29592,2.00678 v 0 c 0.361,0.35991 0.58334,0.61028 0.49729,1.15562 -0.18652,0.49556 -0.17059,0.58924 -0.54967,1.00151 -0.15422,0.16772 -0.71821,0.54967 -0.51192,0.45293 0.88499,-0.41503 1.7279,-0.91618 2.5674,-1.41688 0.2605,-0.15538 -0.54263,0.27425 -0.82729,0.37902 -0.3142,0.11563 -0.64299,0.18692 -0.96448,0.28039 -0.3566,0.0423 -0.71078,0.1199 -1.06981,0.1268 -1.32651,0.0255 -2.95729,-0.35718 -3.96159,-1.2807 -0.17348,-0.15952 -0.28154,-0.37801 -0.42231,-0.56702 -0.0657,-0.54302 -0.1532,-0.68297 0.0787,-1.21728 0.0927,-0.21369 0.59612,-0.663 0.37503,-0.58966 -0.90591,0.30052 -1.70859,0.85227 -2.54619,1.3099 -0.65572,0.35826 2.95155,-1.55222 2.17395,-0.54667 1.55773,0.17732 2.69515,0.31307 4.0522,1.20606 0.57643,0.37932 0.97041,0.71632 1.09184,1.39922 0.0354,0.19911 -0.0319,0.40319 -0.0479,0.60479 -0.24471,0.50567 -0.20238,0.5349 -0.61518,0.92571 -0.13322,0.12613 -0.59417,0.42672 -0.43195,0.34106 5.30975,-2.80386 3.36403,-1.82925 2.16924,-1.30357 0,0 -3.11768,2.40791 -3.11768,2.40791 z" />
  </g>
</svg>
